HIERARCHY
ROOT Hips
{
    OFFSET 0.000000 0.000000 0.000000
    CHANNELS 6 Xposition Yposition Zposition Zrotation Xrotation Yrotation
    JOINT Spine
    {
        OFFSET -0.000000 8.505030 0.000000
        CHANNELS 3 Zrotation Xrotation Yrotation
        JOINT Spine1
        {
            OFFSET -0.000000 25.070629 0.000000
            CHANNELS 3 Zrotation Xrotation Yrotation
            JOINT Neck
            {
                OFFSET -0.000000 24.967667 2.269788
                CHANNELS 3 Zrotation Xrotation Yrotation
                JOINT Head
                {
                    OFFSET -0.000000 14.520781 -2.074397
                    CHANNELS 3 Zrotation Xrotation Yrotation
                    End Site
                    {
                        OFFSET -0.000000 25.929966 0.000000
                    }
                }
            }
            JOINT LeftShoulder
            {
                OFFSET 4.117346 22.983784 -0.389865
                CHANNELS 3 Zrotation Xrotation Yrotation
                JOINT LeftArm
                {
                    OFFSET 11.957758 0.000000 0.000000
                    CHANNELS 3 Zrotation Xrotation Yrotation
                    JOINT LeftForeArm
                    {
                        OFFSET 31.907600 0.000000 0.000000
                        CHANNELS 3 Zrotation Xrotation Yrotation
                        JOINT LeftHand
                        {
                            OFFSET 28.601147 0.000000 0.000000
                            CHANNELS 3 Zrotation Xrotation Yrotation
                            End Site
                            {
                                OFFSET 15.557981 0.000000 0.000000
                            }
                        }
                    }
                }
            }
            JOINT RightShoulder
            {
                OFFSET -4.061940 22.983784 -0.389865
                CHANNELS 3 Zrotation Xrotation Yrotation
                JOINT RightArm
                {
                    OFFSET -11.957758 0.000000 0.000000
                    CHANNELS 3 Zrotation Xrotation Yrotation
                    JOINT RightForeArm
                    {
                        OFFSET -31.907600 0.000000 0.000000
                        CHANNELS 3 Zrotation Xrotation Yrotation
                        JOINT RightHand
                        {
                            OFFSET -28.601147 0.000000 0.000000
                            CHANNELS 3 Zrotation Xrotation Yrotation
                            End Site
                            {
                                OFFSET -15.557981 0.000000 0.000000
                            }
                        }
                    }
                }
            }
        }
    }
    JOINT LeftUpLeg
    {
        OFFSET 10.371986 0.000000 0.000000
        CHANNELS 3 Zrotation Xrotation Yrotation
        JOINT LeftLeg
        {
            OFFSET -0.000000 -42.486427 0.000000
            CHANNELS 3 Zrotation Xrotation Yrotation
            JOINT LeftFoot
            {
                OFFSET -0.000000 -48.322342 0.000000
                CHANNELS 3 Zrotation Xrotation Yrotation
                JOINT LeftToeBase
                {
                    OFFSET -0.000000 -6.741791 15.557981
                    CHANNELS 3 Zrotation Xrotation Yrotation
                    End Site
                    {
                        OFFSET -0.000000 0.000000 4.148795
                    }
                }
            }
        }
    }
    JOINT RightUpLeg
    {
        OFFSET -10.371986 0.000000 0.000000
        CHANNELS 3 Zrotation Xrotation Yrotation
        JOINT RightLeg
        {
            OFFSET -0.000000 -42.486427 0.000000
            CHANNELS 3 Zrotation Xrotation Yrotation
            JOINT RightFoot
            {
                OFFSET -0.000000 -48.322342 0.000000
                CHANNELS 3 Zrotation Xrotation Yrotation
                JOINT RightToeBase
                {
                    OFFSET -0.000000 -6.741791 15.557981
                    CHANNELS 3 Zrotation Xrotation Yrotation
                    End Site
                    {
                        OFFSET -0.000000 0.000000 4.148795
                    }
                }
            }
        }
    }
}
MOTION
Frames:    5
Frame Time:    0.008333
14.604163    36.653118    47.549068    4.290039    -9.954858    92.240051    5.744519    5.406142    1.083969    8.514494    4.230400    1.040375    -3.177871    25.203962    -3.086771    4.383605    -8.078902    -2.561259    6.718529    0.380428    -8.547319    -72.949867    52.029747    -16.172859    5.137642    -41.984554    -4.313038    -32.899731    -35.777321    -25.890768    -14.581210    4.093811    -11.486651    61.356781    63.791031    25.698462    -2.372110    -30.241867    16.426750    29.872805    -24.740656    21.695566    75.197258    -64.957382    52.229401    174.319534    21.415726    155.642242    -11.830276    -41.553387    11.592328    0.000000    0.000000    0.000000    -33.359028    -72.400040    -30.801702    176.595200    29.697876    -159.586151    2.900548    -46.743629    -0.821088    0.000000    0.000000    0.000000    
14.594314    36.660374    47.549206    4.300482    -9.954525    92.241852    5.762548    5.428001    1.083526    8.480901    4.222008    1.043784    -3.144153    25.217861    -3.094204    4.356780    -8.087086    -2.571881    6.748447    0.395504    -8.569983    -72.948868    52.084667    -16.225098    5.156821    -42.018200    -4.241265    -32.998188    -35.780281    -25.952877    -14.538074    4.093079    -11.476784    61.312187    63.642105    25.713251    -2.101241    -30.223816    16.521210    29.663685    -24.804956    21.654345    75.097488    -64.972939    52.139130    174.312317    21.436350    155.755417    -12.002028    -41.550842    11.398134    0.000000    0.000000    0.000000    -33.347855    -72.399185    -30.787064    176.605057    29.732332    -159.633972    2.998699    -46.742142    -0.702391    0.000000    0.000000    0.000000    
14.581222    36.667919    47.549717    4.303270    -9.950517    92.232864    5.758901    5.454280    1.093579    8.485008    4.192400    1.057053    -3.119902    25.254143    -3.109361    4.302474    -8.117166    -2.597047    6.737927    0.398628    -8.618940    -72.955490    52.116425    -16.236504    5.071948    -42.057217    -4.240043    -32.623375    -35.919479    -25.882645    -14.526424    4.100333    -11.475019    61.417564    63.802692    25.612036    -2.302264    -30.371485    16.521263    29.633574    -24.945799    21.628038    75.025368    -64.969521    52.068729    174.307953    21.464897    155.838120    -12.210388    -41.554615    11.188426    0.000000    0.000000    0.000000    -33.344090    -72.404915    -30.740822    176.603363    29.762392    -159.653290    3.187695    -46.721306    -0.501988    0.000000    0.000000    0.000000    
14.568199    36.674419    47.552361    4.295281    -9.957016    92.241364    5.757308    5.464061    1.093270    8.509866    4.166632    1.058160    -3.139411    25.254787    -3.118571    4.301003    -8.098679    -2.609350    6.721271    0.395509    -8.656359    -72.972824    52.146656    -16.247952    5.073473    -42.036091    -4.189764    -32.489044    -35.946392    -25.798395    -14.521187    4.112391    -11.473150    61.441383    63.818089    25.580675    -2.278900    -30.432425    16.562122    29.474960    -25.060720    21.550884    74.997635    -64.984482    52.026760    174.307037    21.465616    155.844528    -12.340727    -41.571945    11.092203    0.000000    0.000000    0.000000    -33.416027    -72.404602    -30.758739    176.595810    29.794302    -159.627502    3.488102    -46.699390    -0.230362    0.000000    0.000000    0.000000    
14.553867    36.680283    47.552193    4.290106    -9.960105    92.256363    5.769156    5.485654    1.084907    8.508417    4.123426    1.054734    -3.133995    25.304150    -3.126631    4.272122    -8.151431    -2.623007    6.715423    0.414514    -8.687905    -72.961594    52.174248    -16.295275    5.118441    -42.018642    -3.983136    -32.803455    -35.805603    -26.053411    -14.505611    4.125679    -11.456624    61.498730    63.746601    25.511278    -2.236402    -30.376438    16.563221    29.456604    -25.000048    21.594709    74.963188    -64.997322    51.962429    174.309128    21.484991    155.854675    -12.504730    -41.582912    10.937519    0.000000    0.000000    0.000000    -33.506916    -72.395210    -30.802576    176.601196    29.835545    -159.654526    3.888930    -46.647964    0.137722    0.000000    0.000000    0.000000    
